<?xml version="1.0" encoding="UTF-8"?>
<svg id="Layer_1" xmlns="http://www.w3.org/2000/svg" version="1.1" viewBox="0 0 6466.42 1630.19">
  <!-- Generator: Adobe Illustrator 29.6.0, SVG Export Plug-In . SVG Version: 2.1.1 Build 207)  -->
  <defs>
    <style>
      .st0 {
        fill: #1c2f41;
      }
    </style>
  </defs>
  <g>
    <path class="st0" d="M2670.25,1097.24c0,107.5,71.71,190.35,195.44,190.35,41.01,0,76.8-8.53,105.84-22.99,2.61-1.66,5.93-2.61,9.36-2.61,11.97,0,21.33,8.53,21.33,21.33,0,7.7-4.27,15.41-11.97,18.73-34.13,17.9-76.8,28.21-124.57,28.21-151.12,0-238.11-101.57-238.11-233.01,0-143.41,108.33-238.94,233.01-238.94,49.54,0,95.53,10.19,126.34,27.26,6.87,4.27,11.14,11.14,11.14,18.73,0,10.19-8.53,21.33-21.33,21.33-3.44,0-6.87-.83-10.19-2.61-25.6-13.63-64.83-22.16-105.84-22.16-102.4,0-190.35,78.46-190.35,196.27l-.12.12Z"/>
    <path class="st0" d="M3247.92,1152.7h-114.37v148.51c0,11.97-9.36,21.33-21.33,21.33-11.14,0-21.33-10.19-21.33-21.33v-413.88c0-11.97,9.36-21.33,21.33-21.33h125.4c99.8,0,162.97,60.56,162.97,143.41,0,61.39-33.3,116.03-103.23,135.71l122.08,142.58c3.44,3.44,5.1,8.53,5.1,13.63,0,10.19-9.36,21.33-21.33,21.33-5.93,0-11.97-2.61-16.24-7.7l-139.14-162.14.12-.12ZM3133.55,1110.04h104.18c78.46,0,120.3-44.33,120.3-100.74,0-60.56-49.54-100.74-120.3-100.74h-104.18v201.49Z"/>
    <path class="st0" d="M3501.32,887.33c0-11.14,8.53-21.33,18.73-21.33h238.94c11.97,0,21.33,9.36,21.33,21.33,0,11.14-9.36,21.33-21.33,21.33h-215.12v148.51h178.38c11.97,0,21.33,9.36,21.33,21.33,0,11.14-9.36,21.33-21.33,21.33h-178.38v180.03h216.78c11.97,0,21.33,9.36,21.33,21.33,0,11.14-9.36,21.33-21.33,21.33h-238.11c-11.14,0-21.33-10.19-21.33-21.33v-413.88h.12Z"/>
    <path class="st0" d="M4155.92,1198.81h-240.72c-16.24,41.01-30.7,78.46-41.84,109.28-3.44,9.36-12.8,14.46-21.33,14.46-10.19,0-20.5-9.36-20.5-22.16,0-3.44.83-6.87,8.53-26.43,38.4-103.23,111.77-272.24,170.67-402.86,3.44-7.7,11.97-12.8,20.5-12.8h3.44c8.53,0,17.07,4.27,20.5,11.97,61.39,132.27,145.07,319.18,178.38,403.69,8.53,20.5,9.36,24.77,9.36,27.26,0,11.14-10.19,21.33-21.33,21.33-8.53,0-16.24-5.1-19.67-13.63-11.97-30.7-28.21-69.1-46.1-110.11h.12ZM3933.22,1156.14h204.81c-33.3-75.97-70.88-158.7-105.01-230.41-31.65,72.54-68.27,154.43-99.8,230.41Z"/>
    <path class="st0" d="M4401.73,908.67h-159.65c-11.14,0-21.33-10.19-21.33-21.33,0-11.97,10.19-21.33,21.33-21.33h365.28c11.97,0,21.33,9.36,21.33,21.33,0,11.14-9.36,21.33-21.33,21.33h-162.97v392.54c0,11.97-9.36,21.33-21.33,21.33-11.14,0-21.33-10.19-21.33-21.33v-392.54Z"/>
    <path class="st0" d="M4715.7,1322.54c-11.14,0-21.33-10.19-21.33-21.33v-413.88c0-11.97,10.19-21.33,21.33-21.33,11.97,0,21.33,9.36,21.33,21.33v413.88c0,11.97-9.36,21.33-21.33,21.33Z"/>
    <path class="st0" d="M5048.51,1330.25c-130.61,0-222.7-102.4-222.7-233.01,0-142.58,90.43-238.94,222.7-238.94,121.25,0,219.38,96.48,219.38,236.45s-81.07,235.5-219.38,235.5h0ZM5048.51,1287.58c112.6,0,176.72-85.34,176.72-192.84s-77.63-193.78-176.72-193.78c-108.33,0-180.03,81.07-180.03,196.27,0,105.01,73.37,190.35,180.03,190.35h0Z"/>
    <path class="st0" d="M5394.95,943.63v357.58c0,11.97-9.36,21.33-21.33,21.33-11.14,0-21.33-10.19-21.33-21.33v-413.88c0-11.97,10.19-21.33,20.5-21.33,12.8,0,18.73,2.61,22.99,8.53,57.25,75.97,194.61,247.47,288.48,370.38v-357.58c0-11.97,10.19-21.33,21.33-21.33,11.97,0,21.33,9.36,21.33,21.33v413.88c0,11.97-9.36,21.33-20.5,21.33-11.97,0-18.73-2.61-22.99-8.53-78.46-105.01-211.68-271.42-288.48-370.38Z"/>
    <path class="st0" d="M5872,974.33c0,36.74,24.77,66.61,116.98,87.94,122.08,28.21,156.21,78.46,156.21,142.46s-44.33,125.4-161.31,125.4c-54.64,0-106.67-12.8-154.43-39.23-6.87-4.27-11.14-11.14-11.14-18.73,0-10.19,8.53-21.33,21.33-21.33,3.44,0,6.87.83,10.19,2.61,41.01,22.99,86.17,34.13,133.93,34.13,77.63,0,118.64-36.74,118.64-82.85s-35.79-78.46-122.08-99.8c-121.13-29.87-151.12-74.19-151.12-133.93,0-53.81,47.76-110.11,137.37-110.11,62.34,0,93.04,10.19,135.71,27.26,8.53,3.44,13.63,11.14,13.63,19.67,0,11.14-10.19,21.33-21.33,21.33-2.61,0-5.1-.83-19.67-6.87-27.26-11.14-56.3-18.73-108.45-18.73-58.08,0-94.7,34.13-94.7,70.88l.24-.12Z"/>
  </g>
  <g>
    <path class="st0" d="M2861.42,342.61c-110.94,0-191.18,78.46-191.18,196.27,0,105.84,69.1,190.35,188.57,190.35,55.47,0,132.27.59,132.27.59v-156.69h-118.64c-11.14,0-21.33-10.19-21.33-21.33,0-11.97,10.19-21.33,21.33-21.33h130.61c21.33,0,30.7,5.1,30.7,21.33v196.63c0,11.38-4.5,22.87-20.98,22.87,0,0-83.2.71-153.96.71-146.85,0-231.24-103.23-231.24-233.01,0-143.41,98.97-238.94,233.84-238.94,50.37,0,124.33.95,124.33.95,14.93,0,21.33,10.79,21.33,21.45s-7.7,21.33-21.33,21.33"/>
    <path class="st0" d="M3326.5,771.89c-130.61,0-222.7-102.4-222.7-233.01,0-142.58,90.43-238.94,222.7-238.94,121.13,0,219.38,96.48,219.38,236.45s-81.07,235.5-219.38,235.5h0ZM3326.5,729.22c112.6,0,176.72-85.34,176.72-192.84s-77.63-193.78-176.72-193.78c-108.45,0-180.03,81.07-180.03,196.27,0,105.01,73.37,190.35,180.03,190.35Z"/>
    <path class="st0" d="M3630.28,742.85v-413.88c0-11.97,9.36-21.33,21.33-21.33h150.17c112.6,0,215.12,93.04,215.12,227.92s-85.34,228.75-215.12,228.75h-150.17c-11.97,0-21.33-9.36-21.33-21.33v-.12ZM3672.94,721.52h128.83c105.84,0,172.45-83.68,172.45-186.08,0-107.5-80.24-185.13-172.45-185.13h-128.83v371.21Z"/>
    <path class="st0" d="M4101.4,328.86c0-11.97,9.36-21.33,21.33-21.33h122.08c99.8,0,167.23,64.83,167.23,152.77,0,82.73-55.47,153.6-167.23,153.6h-100.74v128.83c0,11.97-9.36,21.33-21.33,21.33-11.14,0-21.33-10.19-21.33-21.33v-413.88h0ZM4144.07,571.24h100.74c81.07,0,124.57-48.59,124.57-110.94,0-65.66-52.03-110.11-124.57-110.11h-100.74v221.04h0Z"/>
    <path class="st0" d="M4685.12,771.89c-130.61,0-222.7-102.4-222.7-233.01,0-142.58,90.43-238.94,222.7-238.94,121.13,0,219.38,96.48,219.38,236.45s-81.07,235.5-219.38,235.5h0ZM4685.12,729.22c112.6,0,176.72-85.34,176.72-192.84s-77.63-193.78-176.72-193.78c-108.33,0-180.03,81.07-180.03,196.27,0,105.01,73.37,190.35,180.03,190.35Z"/>
    <path class="st0" d="M5275.6,401.39c-42.67,124.57-110.94,297.02-138.31,357.58-3.44,7.7-11.97,12.8-20.5,12.8-11.14,0-18.73-9.36-22.16-17.07-29.87-64-114.37-311.48-137.37-390.88-6.87-23.94-8.53-30.7-8.53-34.13,0-11.14,9.36-21.33,21.33-21.33,9.36,0,17.9,5.93,20.5,15.41,23.94,89.6,89.6,279.95,126.34,372.99,40.06-95.53,107.5-269.64,138.31-370.38,2.61-9.36,11.14-15.41,20.5-15.41,11.14,0,17.9,7.7,23.94,25.6,29.04,92.21,94.7,270.59,132.27,361.85,37.57-95.53,98.97-272.24,128.83-374.65,2.61-9.36,11.14-15.41,20.5-15.41,10.19,0,21.33,10.19,21.33,21.33,0,2.61-1.66,9.36-4.27,17.9-32.47,110.11-113.54,340.51-145.07,412.22-3.44,7.7-11.97,12.8-20.5,12.8-6.87,0-15.41-4.27-21.33-17.07-28.21-55.47-96.48-237.28-135.71-354.14h-.12Z"/>
    <path class="st0" d="M5690.3,328.86c0-11.14,8.53-21.33,18.73-21.33h238.94c11.97,0,21.33,9.36,21.33,21.33,0,11.14-9.36,21.33-21.33,21.33h-215.12v148.51h178.38c11.97,0,21.33,9.36,21.33,21.33,0,11.14-9.36,21.33-21.33,21.33h-178.38v180.03h216.78c11.97,0,21.33,9.36,21.33,21.33,0,11.14-9.36,21.33-21.33,21.33h-238.11c-11.14,0-21.33-10.19-21.33-21.33v-413.88h.12Z"/>
    <path class="st0" d="M6211.68,594.35h-114.37v148.51c0,11.97-9.36,21.33-21.33,21.33-11.14,0-21.33-10.19-21.33-21.33v-413.88c0-11.97,9.36-21.33,21.33-21.33h125.4c99.8,0,162.97,60.56,162.97,143.41,0,61.39-33.3,116.03-103.23,135.71l122.08,142.58c3.44,3.44,5.1,8.53,5.1,13.63,0,10.19-9.36,21.33-21.33,21.33-5.93,0-11.97-2.61-16.24-7.7l-139.14-162.14.12-.12ZM6097.43,551.68h104.06c78.46,0,120.3-44.33,120.3-100.74,0-60.56-49.54-100.74-120.3-100.74h-104.06v201.49Z"/>
  </g>
  <g>
    <path class="st0" d="M1057.55,1411.73v-754.74c0-36.12-29.39-65.51-65.51-65.51h-297.42c-16.41-22.41-42.91-37-72.76-37-49.7,0-90.13,40.43-90.13,90.13s40.43,90.13,90.13,90.13c23.82,0,45.51-9.29,61.64-24.44h255.24v233.8h-359.74c-59.27,0-117.85-12.81-169.4-37.04-141.11-66.37-212.66-173.54-212.66-318.54,0-215.86,134.2-310.63,246.74-352.1,37.52-13.79,114.21-22.32,163.75-22.32h314.85c16.47,17.79,40.01,28.94,66.11,28.94,49.7,0,90.13-40.43,90.13-90.13s-40.43-90.13-90.13-90.13c-27.8,0-52.7,12.65-69.24,32.5h-311.71c-49.9,0-145.61,7.89-204.78,29.63-36.92,13.61-71.78,30.52-103.61,50.27-40.41,25.08-76.04,54.83-105.91,88.43-35.63,40.08-63.41,86.04-82.57,136.59-21.52,56.77-32.43,120.12-32.43,188.31,0,109.65,32.21,205.36,95.74,284.48,46.65,58.1,108.95,105.73,185.18,141.58,34.07,16.01,70.27,28.24,107.61,36.36,36.57,7.95,74.36,11.97,112.34,11.97h359.74v344.66c-20.19,16.54-33.1,41.66-33.1,69.73,0,49.7,40.43,90.13,90.13,90.13s90.13-40.43,90.13-90.13c0-25.81-10.9-49.11-28.34-65.55ZM621.86,700.78c-30.98,0-56.18-25.2-56.18-56.18s25.2-56.18,56.18-56.18,56.18,25.2,56.18,56.18-25.2,56.18-56.18,56.18ZM988.39,96.72c30.98,0,56.18,25.2,56.18,56.18s-25.2,56.18-56.18,56.18-56.18-25.2-56.18-56.18,25.2-56.18,56.18-56.18ZM995.77,1533.47c-30.98,0-56.18-25.2-56.18-56.18s25.2-56.18,56.18-56.18,56.18,25.2,56.18,56.18-25.2,56.18-56.18,56.18Z"/>
    <path class="st0" d="M2122.07,400.2c-19.16-50.55-46.94-96.51-82.57-136.59-29.87-33.6-65.5-63.35-105.91-88.43-31.82-19.75-66.68-36.66-103.66-50.29-59.12-21.73-154.83-29.61-204.73-29.61h-311.71c-16.55-19.85-41.44-32.5-69.24-32.5-49.7,0-90.13,40.43-90.13,90.13s40.43,90.13,90.13,90.13c26.1,0,49.63-11.15,66.11-28.94h314.85c49.54,0,126.23,8.53,163.7,22.3,112.58,41.49,246.79,136.25,246.79,352.12,0,145-71.55,252.17-212.65,318.54-51.56,24.23-110.14,37.04-169.41,37.04h-359.82v-231.77c18.82-16.53,30.72-40.76,30.72-67.72,0-49.7-40.43-90.13-90.13-90.13s-90.13,40.43-90.13,90.13c0,26.96,11.9,51.19,30.72,67.72v699.41c-17.44,16.45-28.34,39.75-28.34,65.55,0,49.7,40.43,90.13,90.13,90.13s90.13-40.43,90.13-90.13c0-28.08-12.91-53.19-33.1-69.73v-344.66h359.82c37.98,0,75.77-4.03,112.34-11.97,37.34-8.11,73.54-20.34,107.62-36.36,76.21-35.84,138.51-83.48,185.16-141.58,63.53-79.12,95.74-174.83,95.74-284.48,0-68.19-10.91-131.54-32.43-188.31ZM1244.25,209.08c-30.98,0-56.18-25.2-56.18-56.18s25.2-56.18,56.18-56.18,56.18,25.2,56.18,56.18-25.2,56.18-56.18,56.18ZM1234.41,588.42c30.98,0,56.18,25.2,56.18,56.18s-25.2,56.18-56.18,56.18-56.18-25.2-56.18-56.18,25.2-56.18,56.18-56.18ZM1236.78,1533.47c-30.98,0-56.18-25.2-56.18-56.18s25.2-56.18,56.18-56.18,56.18,25.2,56.18,56.18-25.2,56.18-56.18,56.18Z"/>
  </g>
</svg>